<svg width="60" height="60" viewBox="0 0 60 60" fill="none" xmlns="http://www.w3.org/2000/svg">
<path fill-rule="evenodd" clip-rule="evenodd" d="M30.8095 24.3902C30.5038 24.894 30.1693 25.4452 29.7873 26.0678C29.4186 25.4733 29.0913 24.93 28.786 24.423C28.2043 23.4573 27.702 22.6234 27.1442 21.8188C25.0328 18.8044 21.7139 17.7061 18.524 18.8877C15.5316 20.001 13.4734 23.3184 13.8911 26.3632C14.3544 29.7109 16.9062 32.2557 20.4759 32.6874C21.7407 32.8362 23.0296 32.8246 24.3193 32.8131C24.803 32.8088 25.2869 32.8045 25.7696 32.8086C31.7468 32.8692 34.0709 35.1263 34.1088 40.9961C34.1468 45.9116 34.1696 50.8271 34.1088 55.735C34.0709 58.8025 35.2252 59.7416 38.324 58.8933C49.5797 55.8259 58.7544 44.4649 59.3392 32.8919C59.4987 29.7184 58.6861 28.0825 55.2 28.393C54.0432 28.4956 52.8775 28.4692 51.7114 28.4428C50.726 28.4204 49.7403 28.3981 48.7594 28.4536C46.5417 28.5823 45.3038 28.2718 45.5088 25.4619C45.7519 22.0536 43.7088 19.6829 40.481 18.7665C37.0936 17.8046 34.2607 18.9483 32.3088 21.9627C31.8282 22.711 31.3666 23.4719 30.8095 24.3902ZM34.9421 26.3268C34.7062 26.9424 34.4674 27.5658 34.1619 28.1282C34.8803 28.0477 35.6544 28.1709 36.4248 28.2935C38.2609 28.5858 40.0759 28.8747 41.0657 26.3938C41.696 24.8108 40.9518 23.19 39.2049 22.9098C36.4213 22.4654 35.697 24.3561 34.9421 26.3268ZM41.3847 32.8344C39.7902 32.8293 38.1596 32.8241 36.4786 32.8241C38.3546 36.5505 38.5747 39.7846 38.4988 43.0717C38.4697 44.4581 38.4807 45.8462 38.4917 47.2343V47.2344V47.2344C38.5037 48.7432 38.5156 50.2522 38.4761 51.7591C38.4229 53.8116 39.1672 54.1827 40.9292 53.289C48.2583 49.5626 52.7469 43.6549 54.6001 35.7174C54.9799 34.0663 54.9039 32.756 52.557 32.7938C48.9059 32.8582 45.251 32.8466 41.3848 32.8344H41.3848H41.3847ZM26.0732 28.4691C25.1364 28.3584 24.2062 28.4176 23.3267 28.4735C21.076 28.6166 19.1576 28.7386 18.3112 25.9394C17.8479 24.4094 18.8656 23.0916 20.3922 22.9098C22.9948 22.5977 23.8072 24.2293 24.7779 26.1791C25.1498 26.9262 25.545 27.72 26.0732 28.4691Z" fill="white"/>
<path d="M30.0835 1.05827C37.4657 1.09614 43.8986 3.64099 49.4353 8.46561C50.6353 9.51081 52.3214 10.7075 50.6733 12.495C49.0328 14.2748 47.7721 12.654 46.5265 11.6315C35.886 2.86087 21.2202 3.33803 11.8177 12.7449C2.49111 22.076 1.97457 36.5574 10.5948 47.0625C11.7113 48.4183 13.4657 49.9331 11.4759 51.5084C9.54675 53.0384 8.2556 51.0237 7.19231 49.6983C-0.493768 40.0718 -2.157 29.5212 2.88604 18.2209C7.67085 7.49614 18.2202 0.982531 30.0835 1.05827Z" fill="white"/>
</svg>
